HIERARCHY
ROOT Hips
{
	OFFSET 0.000000 88.474243 0.000000
	CHANNELS 6 Xposition Yposition Zposition Zrotation Yrotation Xrotation 
	JOINT Hips_Spine
	{
		OFFSET 0.000000 0.000000 0.000000
		CHANNELS 3 Zrotation Yrotation Xrotation
		JOINT Spine
		{
			OFFSET 0.005100 8.711998 -0.691000
			CHANNELS 3 Zrotation Yrotation Xrotation
			JOINT Spine1
			{
				OFFSET -0.009200 8.660301 -1.275000
				CHANNELS 3 Zrotation Yrotation Xrotation
				JOINT Spine2
				{
					OFFSET 0.006300 9.852501 -1.857000
					CHANNELS 3 Zrotation Yrotation Xrotation
					JOINT Spine2_Neck
					{
						OFFSET 0.000000 0.000000 0.000000
						CHANNELS 3 Zrotation Yrotation Xrotation
						JOINT Neck
						{
							OFFSET 0.016300 11.420799 -0.263300
							CHANNELS 3 Zrotation Yrotation Xrotation
							End Site #name: Head
							{
								OFFSET -0.019200 9.262405 2.362500
							}
						}
					}
					JOINT Spine2_LeftShoulder
					{
						OFFSET 0.000000 0.000000 0.000000
						CHANNELS 3 Zrotation Yrotation Xrotation
						JOINT LeftShoulder
						{
							OFFSET 5.616900 6.732201 -0.345700
							CHANNELS 3 Zrotation Yrotation Xrotation
							JOINT LeftArm
							{
								OFFSET 10.664888 -0.183372 -2.440700
								CHANNELS 3 Zrotation Yrotation Xrotation
								JOINT LeftForeArm
								{
									OFFSET 27.459126 0.000000 0.000000
									CHANNELS 3 Zrotation Yrotation Xrotation
									End Site #name: LeftHand
									{
										OFFSET 21.306858 0.000000 0.000000
									}
								}
							}
						}
					}
					JOINT Spine2_RightShoulder
					{
						OFFSET 0.000000 0.000000 0.000000
						CHANNELS 3 Zrotation Yrotation Xrotation
						JOINT RightShoulder
						{
							OFFSET -5.580300 6.737503 -0.344400
							CHANNELS 3 Zrotation Yrotation Xrotation
							JOINT RightArm
							{
								OFFSET -10.679335 -0.188484 -2.383900
								CHANNELS 3 Zrotation Yrotation Xrotation
								JOINT RightForeArm
								{
									OFFSET -27.503529 0.000000 0.000000
									CHANNELS 3 Zrotation Yrotation Xrotation
									End Site #name: RightHand
									{
										OFFSET -21.306808 0.000000 0.000000
									}
								}
							}
						}
					}
				}
			}
		}
	}
	JOINT Hips_LeftUpLeg
	{
		OFFSET 0.000000 0.000000 0.000000
		CHANNELS 3 Zrotation Yrotation Xrotation
		JOINT LeftUpLeg
		{
			OFFSET 6.857700 -6.739601 0.312100
			CHANNELS 3 Zrotation Yrotation Xrotation
			JOINT LeftLeg
			{
				OFFSET -0.367590 -34.731552 -4.572400
				CHANNELS 3 Zrotation Yrotation Xrotation
				End Site #name: LeftFoot
				{
					OFFSET 0.367590 -34.656704 -6.067400
				}
			}
		}
	}
	JOINT Hips_RightUpLeg
	{
		OFFSET 0.000000 0.000000 0.000000
		CHANNELS 3 Zrotation Yrotation Xrotation
		JOINT RightUpLeg
		{
			OFFSET -6.876100 -6.733299 0.301000
			CHANNELS 3 Zrotation Yrotation Xrotation
			JOINT RightLeg
			{
				OFFSET 0.347353 -34.795158 -4.515900
				CHANNELS 3 Zrotation Yrotation Xrotation
				End Site #name: RightFoot
				{
					OFFSET -0.347353 -34.589367 -6.070300
				}
			}
		}
	}
}
MOTION
Frames: 7
Frame Time: 0.041667
-1.057365 1.864917 0.346228 8.820788 47.780821 -16.901160 0.000000 -0.000000 0.000000 -7.832348 4.831548 -26.416768 5.771866 -8.656950 -5.850268 0.000000 0.000000 0.000000 3.925249 -0.715928 0.783306 -14.031004 -1.861749 -7.207292 14.174353 2.639928 -7.378291 -54.961651 -31.295998 7.407428 -156.763539 46.454765 -115.794665 -179.633396 -31.930114 177.068498 5.564945 3.052536 -4.083191 9.591050 5.417266 5.963084 164.971358 69.498812 38.272419 0.572917 28.629343 4.383720 0.000000 -0.000000 0.000000 40.538416 6.122872 36.473722 59.095442 27.305204 108.583221 -0.000000 -0.000000 0.000000 82.084103 8.352632 -3.793424 -14.773348 7.527833 -81.146145 
-2.625097 4.359542 0.339049 14.493247 42.882864 -16.861205 0.000000 -0.000000 0.000000 -1.320439 8.771858 -51.162290 3.732273 -6.264159 7.065573 0.000000 0.000000 0.000000 -2.087410 1.817393 2.459192 -27.228094 5.403979 -10.153245 16.184522 0.647323 -8.402936 -81.300340 -34.082884 15.988042 -155.717739 44.671758 -120.021964 175.528130 -30.762311 178.640310 6.680044 1.621179 -12.407515 19.572309 17.806178 -0.909553 -71.473886 88.986699 158.737737 -3.755697 73.249255 -1.687602 0.000000 -0.000000 0.000000 38.059789 -9.604535 39.697759 59.759617 22.449566 127.275703 -0.000000 -0.000000 0.000000 72.646169 -0.331367 -25.875642 -18.798548 3.725465 -81.001623 
-4.561842 6.775897 0.444362 14.446385 49.034392 -17.286404 0.000000 -0.000000 0.000000 2.703260 10.915863 -56.738313 2.834072 -5.094369 11.709883 0.000000 0.000000 0.000000 -3.754454 3.909300 11.454526 -33.648727 12.249618 -5.931343 15.665238 0.129045 -9.699358 -92.249050 -30.981722 16.074390 -150.388961 45.461996 -116.519215 175.818460 -25.277319 179.153031 6.932146 1.874439 -10.843418 32.489134 4.222377 -9.779808 24.604344 71.004116 -116.974130 -173.442115 55.617262 -174.892176 0.000000 -0.000000 0.000000 31.637060 -13.872774 38.649952 73.453504 25.902250 125.396034 -0.000000 -0.000000 0.000000 67.749084 6.135449 -33.279755 -20.662742 7.282477 -75.945462 
-6.716936 9.398345 0.674875 14.051579 55.884278 -17.182650 0.000000 -0.000000 0.000000 4.565659 13.457636 -57.778999 1.650998 -5.452807 11.083545 0.000000 0.000000 0.000000 -4.880297 4.090708 12.897634 -39.698052 15.474125 -2.161153 14.044244 -1.783460 -9.654096 -97.722818 -28.358942 15.160217 -148.803322 48.419435 -117.829400 176.557669 -23.588511 178.841476 6.006430 0.594429 -11.387953 35.613031 0.960547 -12.029223 35.598921 58.789122 -119.701830 -174.840535 34.997262 -176.385539 -0.000000 -0.000000 0.000000 29.097433 -17.754846 39.608799 75.656085 28.738120 122.840226 -0.000000 -0.000000 0.000000 67.343283 6.445355 -35.803020 -20.738993 7.049461 -73.183357 
-9.025044 12.144751 1.092339 13.023175 63.046070 -17.539285 0.000000 -0.000000 0.000000 6.408328 15.100064 -55.690378 0.724078 -6.233338 9.525469 0.000000 0.000000 0.000000 -5.386071 3.077349 11.856656 -46.459145 15.842749 -2.718864 12.743036 -3.118852 -9.162872 -99.216995 -26.303595 14.695337 -149.277380 50.278827 -120.115727 176.984886 -25.188993 178.596047 3.981383 -1.222965 -11.167745 38.242343 -1.192891 -14.163562 38.591637 54.451589 -125.967006 -176.646616 21.423210 -177.411255 -0.000000 -0.000000 0.000000 29.796670 -18.987081 38.792725 75.483684 29.442479 122.101948 -0.000000 -0.000000 0.000000 67.667048 5.929442 -37.247839 -21.510650 8.185357 -70.887248 
-11.438081 15.000545 1.634207 12.112767 68.215696 -17.923378 0.000000 -0.000000 0.000000 7.357384 15.072333 -52.902952 -0.007788 -7.484655 7.825262 0.000000 0.000000 0.000000 -5.805360 2.147158 10.733218 -52.140771 17.003138 -3.447516 11.431461 -3.839007 -8.633571 -99.446216 -25.362435 14.002722 -151.722015 51.221147 -122.579436 177.015499 -27.032988 178.488715 2.527326 -2.706367 -10.577738 42.164076 -2.938069 -15.777997 40.316890 51.101939 -130.037560 -177.727123 20.773274 -177.323970 -0.000000 -0.000000 0.000000 31.651580 -20.189501 35.608318 74.935258 30.082829 121.114560 -0.000000 -0.000000 0.000000 68.525299 5.301908 -37.092736 -22.369079 9.102376 -68.796511 
-13.901602 17.963734 2.267059 11.072945 72.044943 -18.568862 0.000000 -0.000000 0.000000 7.834140 14.651124 -50.406407 -0.489046 -9.089211 6.221515 0.000000 0.000000 0.000000 -5.924785 1.100298 9.847821 -55.219395 19.233297 -3.163947 9.559224 -4.335039 -7.971748 -99.214319 -24.674214 13.014131 -155.013442 51.556492 -124.742839 176.928626 -27.675002 178.452600 1.058820 -3.942790 -9.611975 46.263001 -5.097808 -17.517243 42.259353 47.819606 -131.788317 -178.069155 23.104144 -177.337155 -0.000000 -0.000000 0.000000 34.641534 -21.167185 32.389276 73.300553 30.620753 119.667825 -0.000000 -0.000000 0.000000 69.281372 4.864941 -36.517738 -22.960828 10.094607 -68.052277 
